# xmcd
#
# Track frame offsets:
#   150
#   16482
#   30260
#   42432
#   54420
#   67420
#   78242
#   87767
#   101347
#   117082
#   130327
#   141477
#   155852
#   167340
#   180184
#   193097
#   204102
#   216007
#   225985
#   237145
#   249475
#   258772
#   271122
#   283970
#   301997
#
# Disc length: 4164 seconds
#
# Revision: 0
# Processed by: cddbd v1.5PL3 Copyright (c) Steve Scherf et al.
# Submitted via: Media_Universe 3.0
#
DISCID=4d104219
DTITLE=Various Artist - Red Hot Country
DYEAR=1900
DGENRE=Country
TTITLE0=Looking For Love
TTITLE1=BigBad John
TTITLE2=I Can't Help You(I'm Falling Too)
TTITLE3=Oh Lonesome Me
TTITLE4=Ring Of Fire
TTITLE5=Silver Threads and Golden Needles
TTITLE6=Tippy Toeing
TTITLE7=Almost Persuaded
TTITLE8=There Goes My Everything
TTITLE9=Kaw-Liga
TTITLE10=King Of The Road
TTITLE11=Rhinestone Cowboy
TTITLE12=D.I.V.O.R.C.E.
TTITLE13=Tennessee Birdwalk
TTITLE14=Wolverton Mountain
TTITLE15=Please Help Me I'm Falling
TTITLE16=I Like Beer
TTITLE17=From A Jack To A King
TTITLE18=Waterloo
TTITLE19=How Can I Unlove You
TTITLE20=Chug-A-Lug
TTITLE21=Satin Sheets
TTITLE22=Elusive Butterfly
TTITLE23=Don't Go Near The Eskimo's
TTITLE24=Gentle On My Mind
EXTD=
EXTT0=
EXTT1=
EXTT2=
EXTT3=
EXTT4=
EXTT5=
EXTT6=
EXTT7=
EXTT8=
EXTT9=
EXTT10=
EXTT11=
EXTT12=
EXTT13=
EXTT14=
EXTT15=
EXTT16=
EXTT17=
EXTT18=
EXTT19=
EXTT20=
EXTT21=
EXTT22=
EXTT23=
EXTT24=
PLAYORDER=
